<svg width="359" height="46" viewBox="0 0 359 46" fill="none" xmlns="http://www.w3.org/2000/svg">
<path d="M277.649 19.1396C275.542 18.4365 275.148 18.7367 273.066 18.4469C266.535 19.6684 258.637 18.7599 251.669 19.5929C245.491 19.8254 240.908 19.1327 236.433 20.2308C236.022 20.2555 236.417 19.9553 236.408 19.8175C228.149 19.7603 220.77 20.6179 212.51 20.5606C212.527 20.8361 211.712 21.0233 211.301 21.0479C210.857 20.5216 209.623 20.5957 208.833 21.1961C205.476 20.2916 196.008 20.7216 191.072 21.0179C190.265 21.3427 189.41 20.8411 190.66 21.0425C188.159 20.6397 183.651 21.1867 181.208 21.7481C153.92 21.0357 132.153 22.8951 104.462 22.3451C104.462 22.3451 104.067 22.6453 104.075 22.7831C97.0246 22.2385 90.0568 23.0714 84.2404 22.4528C78.4984 23.0739 73.0933 22.4306 65.6811 22.7372C48.7258 22.2342 26.448 22.4653 8.63695 21.4606C7.00816 21.8348 4.51539 21.5697 2.04745 21.7178C-1.1605 23.2928 3.06022 24.8367 9.29625 25.5684C8.46534 25.48 6.79524 25.1655 5.56952 25.3773C12.7274 27.7126 30.0858 28.0532 40.8051 27.8246C43.6844 27.6518 47.8555 28.3692 51.1627 28.4472C62.7294 28.5825 73.0292 28.2408 85.8299 28.302C113.924 28.6895 149.776 27.6437 180.724 27.4452C181.127 27.2828 181.53 27.1203 181.522 26.9826C212.076 27.0842 240.055 25.5433 270.181 25.3941C282.101 24.5404 295.313 24.5769 307.653 23.8363C308.089 24.2249 309.315 24.0131 311.388 24.1651C326.632 23.665 341.9 23.5781 357.597 23.7419C357.564 23.1909 358.823 23.5301 358.789 22.9791C358.254 20.9376 351.59 19.9551 349.015 18.3125C346.95 18.2981 345.691 17.959 344.029 17.7822C327.518 17.8054 310.21 18.2913 293.279 18.2015C289.199 18.9993 284.674 19.2709 278.035 18.7016C277.632 18.8641 278.463 18.9524 277.649 19.1396ZM190.958 26.0015C188.918 26.4005 185.166 25.7961 182.698 25.9443C183.529 26.0326 183.949 26.1457 184.377 26.3965C180.6 25.379 180.675 26.6187 179.391 25.8663C167.487 26.9954 154.695 27.072 141.894 27.0108C126.264 27.9489 108.897 27.4705 91.5553 27.4054C91.9667 27.3807 91.5471 27.2676 91.5388 27.1299C91.144 27.43 91.5305 26.9921 91.1357 27.2923C90.3296 27.6172 91.5471 27.2676 90.3379 27.7549C87.8369 27.352 86.2164 27.864 84.9328 27.1116C84.538 27.4118 84.9494 27.3871 84.5546 27.6873C81.6422 27.3091 80.0134 27.6834 77.1176 27.5807C78.3268 27.0934 75.0196 27.0153 75.0279 27.1531C73.8187 27.6404 77.0763 26.8919 76.295 27.63C74.2135 27.3402 72.9795 27.4143 71.7621 27.7638C67.1631 26.7957 58.9448 27.4271 53.178 27.635C41.5534 26.5355 29.6414 27.5269 18.3951 25.8517C27.4856 25.9974 39.4967 26.6589 48.1511 26.416C48.1594 26.5538 48.1676 26.6915 48.1676 26.6915C58.0477 26.2368 64.2425 26.2797 73.7691 26.8139C74.1639 26.5137 75.0031 26.7399 75.3979 26.4397C76.6567 26.7789 79.9638 26.8569 81.1647 26.2318C90.2966 27.0662 95.6108 26.1942 106.371 26.6544C107.178 26.3295 108.428 26.5309 108.403 26.1177C110.476 26.2698 110.476 26.2698 111.316 26.4959C114.59 26.0229 117.082 26.288 122.051 26.5428C133.149 25.7385 146.805 26.3013 157.886 25.2215C162.477 26.0519 168.186 24.8798 172.727 24.8838C172.727 24.8838 172.341 25.3217 172.76 25.4348C174.011 25.6362 176.865 25.0501 178.922 24.9267C185.931 24.7825 194.158 24.2888 200.369 24.6072C204.062 24.2473 209.468 24.8906 213.967 24.2058C215.604 23.9693 214.404 24.5944 216.46 24.4709C216.049 24.4956 216.444 24.1954 216.427 23.9199C236.648 23.8123 252.715 23.2627 272.928 23.0173C254.434 24.4037 232.518 23.7836 215.284 25.5092C209.098 25.604 203.726 25.5117 199.209 25.921C198.378 25.8327 198.362 25.5572 196.708 25.5182C195.927 26.2563 192.578 25.4895 190.958 26.0015ZM122.355 24.7273C120.677 24.2751 124.42 24.7417 122.355 24.7273V24.7273ZM190.958 26.0015C190.95 25.8638 190.127 25.9132 190.958 26.0015V26.0015ZM171.987 26.3106C171.987 26.3106 171.559 26.0598 171.987 26.3106V26.3106ZM149.718 26.6795C149.306 26.7042 149.298 26.5664 149.718 26.6795V26.6795ZM110.946 27.2093C113.438 27.4744 112.147 26.5843 110.946 27.2093V27.2093ZM110.946 27.2093C110.526 27.0963 111.357 27.1846 110.946 27.2093V27.2093ZM99.3954 27.3496C101.863 27.2014 98.1449 27.1481 99.3954 27.3496V27.3496ZM95.2656 27.3209C97.3387 27.473 94.0068 26.9817 95.2656 27.3209V27.3209ZM91.5388 27.1299C91.9584 27.2429 92.3532 26.9427 91.5388 27.1299V27.1299Z" fill="#E5E5E5"/>
</svg>
