<svg width="9" height="165" viewBox="0 0 9 165" fill="none" xmlns="http://www.w3.org/2000/svg">
<path d="M7.85581 3.91589C8.11981 3.91589 8.34181 4.00589 8.52181 4.18589C8.70181 4.35389 8.79181 4.56989 8.79181 4.83389C8.79181 5.09789 8.70181 5.31989 8.52181 5.4999C8.34181 5.67989 8.11981 5.7699 7.85581 5.7699H5.33581V8.3079C5.33581 8.5719 5.24581 8.79389 5.06581 8.97389C4.88581 9.14189 4.66381 9.22589 4.39981 9.22589C4.13581 9.22589 3.91381 9.14189 3.73381 8.97389C3.55381 8.79389 3.46381 8.5719 3.46381 8.3079V5.7699H0.943812C0.679812 5.7699 0.457812 5.67989 0.277812 5.4999C0.0978125 5.31989 0.0078125 5.09789 0.0078125 4.83389C0.0078125 4.56989 0.0978125 4.35389 0.277812 4.18589C0.457812 4.00589 0.679812 3.91589 0.943812 3.91589H3.46381V1.37789C3.46381 1.11389 3.55381 0.891895 3.73381 0.711895C3.91381 0.531895 4.13581 0.441895 4.39981 0.441895C4.66381 0.441895 4.88581 0.531895 5.06581 0.711895C5.24581 0.891895 5.33581 1.11389 5.33581 1.37789V3.91589H7.85581Z" fill="black"/>
<path d="M7.85581 34.9159C8.11981 34.9159 8.34181 35.0059 8.52181 35.1859C8.70181 35.3539 8.79181 35.5699 8.79181 35.8339C8.79181 36.0979 8.70181 36.3199 8.52181 36.4999C8.34181 36.6799 8.11981 36.7699 7.85581 36.7699H5.33581V39.3079C5.33581 39.5719 5.24581 39.7939 5.06581 39.9739C4.88581 40.1419 4.66381 40.2259 4.39981 40.2259C4.13581 40.2259 3.91381 40.1419 3.73381 39.9739C3.55381 39.7939 3.46381 39.5719 3.46381 39.3079V36.7699H0.943812C0.679812 36.7699 0.457812 36.6799 0.277812 36.4999C0.0978125 36.3199 0.0078125 36.0979 0.0078125 35.8339C0.0078125 35.5699 0.0978125 35.3539 0.277812 35.1859C0.457812 35.0059 0.679812 34.9159 0.943812 34.9159H3.46381V32.3779C3.46381 32.1139 3.55381 31.8919 3.73381 31.7119C3.91381 31.5319 4.13581 31.4419 4.39981 31.4419C4.66381 31.4419 4.88581 31.5319 5.06581 31.7119C5.24581 31.8919 5.33581 32.1139 5.33581 32.3779V34.9159H7.85581Z" fill="black"/>
<path d="M7.85581 65.9159C8.11981 65.9159 8.34181 66.0059 8.52181 66.1859C8.70181 66.3539 8.79181 66.5699 8.79181 66.8339C8.79181 67.0979 8.70181 67.3199 8.52181 67.4999C8.34181 67.6799 8.11981 67.7699 7.85581 67.7699H5.33581V70.3079C5.33581 70.5719 5.24581 70.7939 5.06581 70.9739C4.88581 71.1419 4.66381 71.2259 4.39981 71.2259C4.13581 71.2259 3.91381 71.1419 3.73381 70.9739C3.55381 70.7939 3.46381 70.5719 3.46381 70.3079V67.7699H0.943812C0.679812 67.7699 0.457812 67.6799 0.277812 67.4999C0.0978125 67.3199 0.0078125 67.0979 0.0078125 66.8339C0.0078125 66.5699 0.0978125 66.3539 0.277812 66.1859C0.457812 66.0059 0.679812 65.9159 0.943812 65.9159H3.46381V63.3779C3.46381 63.1139 3.55381 62.8919 3.73381 62.7119C3.91381 62.5319 4.13581 62.4419 4.39981 62.4419C4.66381 62.4419 4.88581 62.5319 5.06581 62.7119C5.24581 62.8919 5.33581 63.1139 5.33581 63.3779V65.9159H7.85581Z" fill="black"/>
<path d="M7.85581 96.9159C8.11981 96.9159 8.34181 97.0059 8.52181 97.1859C8.70181 97.3539 8.79181 97.5699 8.79181 97.8339C8.79181 98.0979 8.70181 98.3199 8.52181 98.4999C8.34181 98.6799 8.11981 98.7699 7.85581 98.7699H5.33581V101.308C5.33581 101.572 5.24581 101.794 5.06581 101.974C4.88581 102.142 4.66381 102.226 4.39981 102.226C4.13581 102.226 3.91381 102.142 3.73381 101.974C3.55381 101.794 3.46381 101.572 3.46381 101.308V98.7699H0.943812C0.679812 98.7699 0.457812 98.6799 0.277812 98.4999C0.0978125 98.3199 0.0078125 98.0979 0.0078125 97.8339C0.0078125 97.5699 0.0978125 97.3539 0.277812 97.1859C0.457812 97.0059 0.679812 96.9159 0.943812 96.9159H3.46381V94.3779C3.46381 94.1139 3.55381 93.8919 3.73381 93.7119C3.91381 93.5319 4.13581 93.4419 4.39981 93.4419C4.66381 93.4419 4.88581 93.5319 5.06581 93.7119C5.24581 93.8919 5.33581 94.1139 5.33581 94.3779V96.9159H7.85581Z" fill="black"/>
<path d="M7.85581 127.916C8.11981 127.916 8.34181 128.006 8.52181 128.186C8.70181 128.354 8.79181 128.57 8.79181 128.834C8.79181 129.098 8.70181 129.32 8.52181 129.5C8.34181 129.68 8.11981 129.77 7.85581 129.77H5.33581V132.308C5.33581 132.572 5.24581 132.794 5.06581 132.974C4.88581 133.142 4.66381 133.226 4.39981 133.226C4.13581 133.226 3.91381 133.142 3.73381 132.974C3.55381 132.794 3.46381 132.572 3.46381 132.308V129.77H0.943812C0.679812 129.77 0.457812 129.68 0.277812 129.5C0.0978125 129.32 0.0078125 129.098 0.0078125 128.834C0.0078125 128.57 0.0978125 128.354 0.277812 128.186C0.457812 128.006 0.679812 127.916 0.943812 127.916H3.46381V125.378C3.46381 125.114 3.55381 124.892 3.73381 124.712C3.91381 124.532 4.13581 124.442 4.39981 124.442C4.66381 124.442 4.88581 124.532 5.06581 124.712C5.24581 124.892 5.33581 125.114 5.33581 125.378V127.916H7.85581Z" fill="black"/>
<path d="M7.85581 158.916C8.11981 158.916 8.34181 159.006 8.52181 159.186C8.70181 159.354 8.79181 159.57 8.79181 159.834C8.79181 160.098 8.70181 160.32 8.52181 160.5C8.34181 160.68 8.11981 160.77 7.85581 160.77H5.33581V163.308C5.33581 163.572 5.24581 163.794 5.06581 163.974C4.88581 164.142 4.66381 164.226 4.39981 164.226C4.13581 164.226 3.91381 164.142 3.73381 163.974C3.55381 163.794 3.46381 163.572 3.46381 163.308V160.77H0.943812C0.679812 160.77 0.457812 160.68 0.277812 160.5C0.0978125 160.32 0.0078125 160.098 0.0078125 159.834C0.0078125 159.57 0.0978125 159.354 0.277812 159.186C0.457812 159.006 0.679812 158.916 0.943812 158.916H3.46381V156.378C3.46381 156.114 3.55381 155.892 3.73381 155.712C3.91381 155.532 4.13581 155.442 4.39981 155.442C4.66381 155.442 4.88581 155.532 5.06581 155.712C5.24581 155.892 5.33581 156.114 5.33581 156.378V158.916H7.85581Z" fill="black"/>
</svg>
