<svg width="165" height="9" viewBox="0 0 165 9" fill="none" xmlns="http://www.w3.org/2000/svg">
<path d="M161.084 7.85606C161.084 8.12006 160.994 8.34206 160.814 8.52206C160.646 8.70206 160.43 8.79206 160.166 8.79206C159.902 8.79206 159.68 8.70206 159.5 8.52206C159.32 8.34206 159.23 8.12006 159.23 7.85606L159.23 5.33606L156.692 5.33606C156.428 5.33606 156.206 5.24606 156.026 5.06606C155.858 4.88606 155.774 4.66406 155.774 4.40006C155.774 4.13606 155.858 3.91406 156.026 3.73406C156.206 3.55406 156.428 3.46406 156.692 3.46406L159.23 3.46406L159.23 0.944056C159.23 0.680056 159.32 0.458056 159.5 0.278056C159.68 0.0980564 159.902 0.00805644 160.166 0.00805645C160.43 0.00805646 160.646 0.0980564 160.814 0.278056C160.994 0.458056 161.084 0.680056 161.084 0.944056L161.084 3.46406L163.622 3.46406C163.886 3.46406 164.108 3.55406 164.288 3.73406C164.468 3.91406 164.558 4.13606 164.558 4.40006C164.558 4.66406 164.468 4.88606 164.288 5.06606C164.108 5.24606 163.886 5.33606 163.622 5.33606L161.084 5.33606L161.084 7.85606Z" fill="black"/>
<path d="M130.084 7.85606C130.084 8.12006 129.994 8.34206 129.814 8.52206C129.646 8.70206 129.43 8.79206 129.166 8.79206C128.902 8.79206 128.68 8.70206 128.5 8.52206C128.32 8.34206 128.23 8.12005 128.23 7.85606L128.23 5.33606L125.692 5.33606C125.428 5.33606 125.206 5.24606 125.026 5.06606C124.858 4.88606 124.774 4.66406 124.774 4.40006C124.774 4.13606 124.858 3.91406 125.026 3.73406C125.206 3.55406 125.428 3.46406 125.692 3.46406L128.23 3.46406L128.23 0.944055C128.23 0.680055 128.32 0.458055 128.5 0.278055C128.68 0.098055 128.902 0.00805508 129.166 0.00805509C129.43 0.00805511 129.646 0.0980551 129.814 0.278055C129.994 0.458055 130.084 0.680055 130.084 0.944055L130.084 3.46406L132.622 3.46406C132.886 3.46406 133.108 3.55406 133.288 3.73406C133.468 3.91406 133.558 4.13606 133.558 4.40006C133.558 4.66406 133.468 4.88606 133.288 5.06606C133.108 5.24606 132.886 5.33606 132.622 5.33606L130.084 5.33606L130.084 7.85606Z" fill="black"/>
<path d="M99.0836 7.85605C99.0836 8.12005 98.9936 8.34205 98.8136 8.52205C98.6456 8.70205 98.4296 8.79205 98.1656 8.79205C97.9016 8.79205 97.6796 8.70205 97.4996 8.52205C97.3196 8.34205 97.2296 8.12005 97.2296 7.85605L97.2296 5.33605L94.6916 5.33605C94.4276 5.33605 94.2056 5.24605 94.0256 5.06605C93.8576 4.88605 93.7736 4.66405 93.7736 4.40005C93.7736 4.13605 93.8576 3.91405 94.0256 3.73405C94.2056 3.55405 94.4276 3.46405 94.6916 3.46405L97.2296 3.46405L97.2296 0.944054C97.2296 0.680054 97.3196 0.458054 97.4996 0.278054C97.6796 0.0980537 97.9016 0.00805373 98.1656 0.00805374C98.4296 0.00805375 98.6456 0.0980537 98.8136 0.278054C98.9936 0.458054 99.0836 0.680054 99.0836 0.944054L99.0836 3.46405L101.622 3.46405C101.886 3.46405 102.108 3.55405 102.288 3.73405C102.468 3.91405 102.558 4.13605 102.558 4.40005C102.558 4.66405 102.468 4.88605 102.288 5.06605C102.108 5.24605 101.886 5.33605 101.622 5.33605L99.0836 5.33605L99.0836 7.85605Z" fill="black"/>
<path d="M68.0836 7.85605C68.0836 8.12005 67.9936 8.34205 67.8136 8.52205C67.6456 8.70205 67.4296 8.79205 67.1656 8.79205C66.9016 8.79205 66.6796 8.70205 66.4996 8.52205C66.3196 8.34205 66.2296 8.12005 66.2296 7.85605L66.2296 5.33605L63.6916 5.33605C63.4276 5.33605 63.2056 5.24605 63.0256 5.06605C62.8576 4.88605 62.7736 4.66405 62.7736 4.40005C62.7736 4.13605 62.8576 3.91405 63.0256 3.73405C63.2056 3.55405 63.4276 3.46405 63.6916 3.46405L66.2296 3.46405L66.2296 0.944052C66.2296 0.680052 66.3196 0.458052 66.4996 0.278052C66.6796 0.0980523 66.9016 0.00805237 67.1656 0.00805238C67.4296 0.0080524 67.6456 0.0980524 67.8136 0.278052C67.9936 0.458052 68.0836 0.680052 68.0836 0.944052L68.0836 3.46405L70.6216 3.46405C70.8856 3.46405 71.1076 3.55405 71.2876 3.73405C71.4676 3.91405 71.5576 4.13605 71.5576 4.40005C71.5576 4.66405 71.4676 4.88605 71.2876 5.06605C71.1076 5.24605 70.8856 5.33605 70.6216 5.33605L68.0836 5.33605L68.0836 7.85605Z" fill="black"/>
<path d="M37.0836 7.85605C37.0836 8.12005 36.9936 8.34205 36.8136 8.52205C36.6456 8.70205 36.4296 8.79205 36.1656 8.79205C35.9016 8.79205 35.6796 8.70205 35.4996 8.52205C35.3196 8.34205 35.2296 8.12005 35.2296 7.85605L35.2296 5.33605L32.6916 5.33605C32.4276 5.33605 32.2056 5.24605 32.0256 5.06605C31.8576 4.88605 31.7736 4.66405 31.7736 4.40005C31.7736 4.13605 31.8576 3.91405 32.0256 3.73405C32.2056 3.55405 32.4276 3.46405 32.6916 3.46405L35.2296 3.46405L35.2296 0.944051C35.2296 0.680051 35.3196 0.458051 35.4996 0.278051C35.6796 0.098051 35.9016 0.00805102 36.1656 0.00805103C36.4296 0.00805104 36.6456 0.098051 36.8136 0.278051C36.9936 0.458051 37.0836 0.680051 37.0836 0.944051L37.0836 3.46405L39.6216 3.46405C39.8856 3.46405 40.1076 3.55405 40.2876 3.73405C40.4676 3.91405 40.5576 4.13605 40.5576 4.40005C40.5576 4.66405 40.4676 4.88605 40.2876 5.06605C40.1076 5.24605 39.8856 5.33605 39.6216 5.33605L37.0836 5.33605L37.0836 7.85605Z" fill="black"/>
<path d="M6.08362 7.85605C6.08362 8.12005 5.99361 8.34205 5.81361 8.52205C5.64561 8.70205 5.42962 8.79205 5.16562 8.79205C4.90162 8.79205 4.67962 8.70205 4.49962 8.52205C4.31962 8.34205 4.22961 8.12005 4.22961 7.85605L4.22961 5.33605L1.69162 5.33605C1.42762 5.33605 1.20562 5.24605 1.02562 5.06605C0.857619 4.88605 0.77362 4.66405 0.77362 4.40005C0.77362 4.13605 0.857619 3.91405 1.02562 3.73405C1.20562 3.55405 1.42762 3.46405 1.69162 3.46405L4.22961 3.46405L4.22961 0.94405C4.22961 0.68005 4.31962 0.45805 4.49962 0.27805C4.67962 0.0980496 4.90162 0.00804966 5.16562 0.00804967C5.42962 0.00804968 5.64561 0.0980497 5.81361 0.27805C5.99361 0.45805 6.08362 0.68005 6.08362 0.94405L6.08362 3.46405L8.62161 3.46405C8.88561 3.46405 9.10761 3.55405 9.28761 3.73405C9.46761 3.91405 9.55762 4.13605 9.55762 4.40005C9.55762 4.66405 9.46761 4.88605 9.28761 5.06605C9.10761 5.24605 8.88561 5.33605 8.62161 5.33605L6.08362 5.33605L6.08362 7.85605Z" fill="black"/>
</svg>
